<svg width="28" height="28" viewBox="0 0 28 28" fill="none" xmlns="http://www.w3.org/2000/svg">
<path d="M7.06671 3.06669C3.86671 4.53335 1.33337 6.53335 1.33337 7.33335C1.33337 8.13335 4.00004 10.1334 7.33337 11.7334L13.4667 14.6667L20.1334 11.3334C23.8667 9.33335 26.4 7.33335 25.8667 6.53335C25.2 5.46669 13.7334 -0.266647 12.9334 0.133353C12.8 0.133353 10.1334 1.46669 7.06671 3.06669ZM19.4667 4.66669C24.8 6.80002 24.5334 8.26669 18.6667 10.6667C15.3334 12 13.6 12 9.20004 10.6667C2.26671 8.40002 1.73337 7.20002 6.26671 4.80002C11.0667 2.26669 13.6 2.13335 19.4667 4.66669Z" fill="#3D8A5A"/>
<path d="M1.33337 14.5333C1.33337 15.4667 11.4667 20 13.6 20C15.6 20 26.9334 14.5333 26.4 13.8667C26 13.4667 22.9334 14.5333 19.7334 16.1333L13.7334 18.9333L7.60004 16.2667C4.13337 14.6667 1.33337 14 1.33337 14.5333Z" fill="#3D8A5A"/>
<path d="M0.800026 20.1333C1.20003 20.9333 4.26669 22.6667 7.46669 24C13.2 26.5333 13.3334 26.5333 20 23.7333C23.6 22.2667 26.6667 20.4 26.6667 19.7333C26.6667 19.2 23.7334 20.1333 20.2667 21.8667L13.7334 25.2L6.80003 22C3.06669 20.1333 0.266693 19.3333 0.800026 20.1333Z" fill="#3D8A5A"/>
</svg>
