<svg width="26" height="26" viewBox="0 0 26 26" fill="none" xmlns="http://www.w3.org/2000/svg">
<path d="M15.5029 10.4971C14.5027 9.49728 13.1464 8.9356 11.7322 8.9356C10.318 8.9356 8.96168 9.49728 7.96154 10.4971L2.6282 15.8305C2.11882 16.3224 1.71251 16.911 1.433 17.5616C1.15348 18.2123 1.00636 18.9122 1.0002 19.6203C0.994048 20.3285 1.12899 21.0308 1.39715 21.6862C1.66532 22.3417 2.06134 22.9371 2.5621 23.4379C3.06286 23.9387 3.65833 24.3347 4.31378 24.6028C4.96923 24.871 5.67152 25.006 6.37968 24.9998C7.08783 24.9936 7.78767 24.8465 8.43836 24.567C9.08905 24.2875 9.67755 23.8812 10.1695 23.3718L11.6389 21.9038M10.6282 15.3718C11.6284 16.3716 12.9847 16.9333 14.3989 16.9333C15.8131 16.9333 17.1694 16.3716 18.1695 15.3718L23.5029 10.0385C24.4744 9.03259 25.012 7.68537 24.9998 6.28699C24.9876 4.88861 24.4267 3.55094 23.4379 2.5621C22.4491 1.57325 21.1114 1.01235 19.713 1.0002C18.3146 0.98805 16.9674 1.52562 15.9615 2.49713L14.4949 3.9638" stroke="#3D8A5A" stroke-width="2" stroke-linecap="round" stroke-linejoin="round"/>
</svg>
